<svg xmlns="http://www.w3.org/2000/svg" width="1484.791" height="1630.029" viewBox="0 0 1484.791 1630.029"><defs><style>.a{fill:#F8EEE0;}</style></defs><path class="a" d="M668.852,1630.028C431.921,1630.028,273,1481.7,273,1323.371c0-91.561,17.237-124.7,17.237-182.851S251.625,1027.835,243.065,1019C118.786,862.771,0,838.11,0,544.913,0,243.966,192.07,0,429,0,531.428,0,625.47,45.595,699.236,121.679c49.77,2.641,97.326,16.049,141.306,38.444A345.219,345.219,0,0,1,962,137.976c236.93,0,429,243.967,429,544.914,0,144.026-43.983,274.991-115.829,372.421,110.555,31.23,187.986,89.7,205.787,167.776,35.31,154.866-177.367,328.226-475.026,387.21-67.547,13.385-133.683,19.731-195.956,19.732Z"/></svg>